<svg width="20" height="20" viewBox="0 0 20 20" fill="none" xmlns="http://www.w3.org/2000/svg">
<g clip-path="url(#clip0_44_527)">
<path d="M19.7613 10.2301C19.7613 9.55038 19.7061 8.86693 19.5886 8.19818H10.1562V12.049H15.5577C15.3335 13.291 14.6134 14.3896 13.5588 15.0878V17.5864H16.7813C18.6736 15.8447 19.7613 13.2726 19.7613 10.2301Z" fill="#4285F4"/>
<path d="M10.1563 20.0007C12.8533 20.0007 15.1278 19.1152 16.785 17.5866L13.5625 15.088C12.6659 15.6979 11.5085 16.0433 10.1599 16.0433C7.55108 16.0433 5.33907 14.2833 4.54539 11.9169H1.22002V14.4927C2.91761 17.8695 6.37526 20.0007 10.1563 20.0007Z" fill="#34A853"/>
<path d="M4.5417 11.917C4.12281 10.675 4.12281 9.3302 4.5417 8.08824V5.51245H1.22C-0.198334 8.3381 -0.198334 11.6671 1.22 14.4928L4.5417 11.917Z" fill="#FBBC04"/>
<path d="M10.1563 3.95805C11.5819 3.936 12.9599 4.47247 13.9924 5.45722L16.8474 2.60218C15.0396 0.904587 12.6402 -0.0287217 10.1563 0.000673888C6.37526 0.000673888 2.91761 2.13185 1.22002 5.51234L4.54171 8.08813C5.33172 5.71811 7.54741 3.95805 10.1563 3.95805Z" fill="#EA4335"/>
</g>
<defs>
<clipPath id="clip0_44_527">
<rect width="20" height="20" fill="white"/>
</clipPath>
</defs>
</svg>
