<svg width="135" height="20" viewBox="0 0 135 20" fill="none" xmlns="http://www.w3.org/2000/svg">
    <path d="M6.54332 19.2557C5.20241 19.2557 4.04901 18.9716 3.0831 18.4034C2.12287 17.8295 1.38423 17.0341 0.867188 16.017C0.355824 15 0.100142 13.8295 0.100142 12.5057C0.100142 11.1648 0.358665 9.98864 0.87571 8.97727C1.39844 7.96023 2.13991 7.16761 3.10014 6.59943C4.06037 6.02557 5.20241 5.73864 6.52628 5.73864C7.66832 5.73864 8.66832 5.94602 9.52628 6.36079C10.3842 6.77557 11.0632 7.35795 11.5632 8.10795C12.0632 8.85795 12.3388 9.73864 12.3899 10.75H8.96378C8.86719 10.0966 8.61151 9.57102 8.19673 9.1733C7.78764 8.76989 7.25071 8.56818 6.58594 8.56818C6.02344 8.56818 5.53196 8.72159 5.11151 9.02841C4.69673 9.32955 4.37287 9.76989 4.13991 10.3494C3.90696 10.929 3.79048 11.6307 3.79048 12.4545C3.79048 13.2898 3.90412 14 4.13139 14.5852C4.36435 15.1705 4.69105 15.6165 5.11151 15.9233C5.53196 16.2301 6.02344 16.3835 6.58594 16.3835C7.00071 16.3835 7.37287 16.2983 7.70242 16.1278C8.03764 15.9574 8.31321 15.7102 8.52912 15.3864C8.75071 15.0568 8.8956 14.6619 8.96378 14.2017H12.3899C12.3331 15.2017 12.0604 16.0824 11.5717 16.8438C11.0888 17.5994 10.4212 18.1903 9.56889 18.6165C8.71662 19.0426 7.7081 19.2557 6.54332 19.2557ZM20.6293 19.2557C19.3054 19.2557 18.1605 18.9744 17.1946 18.4119C16.2344 17.8437 15.4929 17.054 14.9702 16.0426C14.4474 15.0256 14.1861 13.8466 14.1861 12.5057C14.1861 11.1534 14.4474 9.97159 14.9702 8.96023C15.4929 7.94318 16.2344 7.15341 17.1946 6.59091C18.1605 6.02273 19.3054 5.73864 20.6293 5.73864C21.9531 5.73864 23.0952 6.02273 24.0554 6.59091C25.0213 7.15341 25.7656 7.94318 26.2884 8.96023C26.8111 9.97159 27.0724 11.1534 27.0724 12.5057C27.0724 13.8466 26.8111 15.0256 26.2884 16.0426C25.7656 17.054 25.0213 17.8437 24.0554 18.4119C23.0952 18.9744 21.9531 19.2557 20.6293 19.2557ZM20.6463 16.4432C21.2486 16.4432 21.7514 16.2727 22.1548 15.9318C22.5582 15.5852 22.8622 15.1136 23.0668 14.517C23.277 13.9205 23.3821 13.2415 23.3821 12.4801C23.3821 11.7188 23.277 11.0398 23.0668 10.4432C22.8622 9.84659 22.5582 9.375 22.1548 9.02841C21.7514 8.68182 21.2486 8.50852 20.6463 8.50852C20.0384 8.50852 19.527 8.68182 19.1122 9.02841C18.7031 9.375 18.3935 9.84659 18.1832 10.4432C17.9787 11.0398 17.8764 11.7188 17.8764 12.4801C17.8764 13.2415 17.9787 13.9205 18.1832 14.517C18.3935 15.1136 18.7031 15.5852 19.1122 15.9318C19.527 16.2727 20.0384 16.4432 20.6463 16.4432ZM33.0639 11.4318V19H29.4332V5.90909H32.8935V8.21875H33.0469C33.3366 7.45739 33.8224 6.85511 34.5043 6.41193C35.1861 5.96307 36.0128 5.73864 36.9844 5.73864C37.8935 5.73864 38.6861 5.9375 39.3622 6.33523C40.0384 6.73295 40.5639 7.30114 40.9389 8.03977C41.3139 8.77273 41.5014 9.64773 41.5014 10.6648V19H37.8707V11.3125C37.8764 10.5114 37.6719 9.88636 37.2571 9.4375C36.8423 8.98295 36.2713 8.75568 35.544 8.75568C35.0554 8.75568 34.6236 8.8608 34.2486 9.07102C33.8793 9.28125 33.5895 9.58807 33.3793 9.99148C33.1747 10.3892 33.0696 10.8693 33.0639 11.4318ZM51.326 5.90909V8.63636H43.4425V5.90909H51.326ZM45.2322 2.77273H48.8629V14.9773C48.8629 15.3125 48.9141 15.5739 49.0163 15.7614C49.1186 15.9432 49.2607 16.071 49.4425 16.1449C49.63 16.2187 49.8459 16.2557 50.0902 16.2557C50.2607 16.2557 50.4311 16.2415 50.6016 16.2131C50.772 16.179 50.9027 16.1534 50.9936 16.1364L51.5646 18.8381C51.3828 18.8949 51.1271 18.9602 50.7976 19.0341C50.468 19.1136 50.0675 19.1619 49.5959 19.179C48.7209 19.2131 47.9538 19.0966 47.2947 18.8295C46.6413 18.5625 46.1328 18.1477 45.7692 17.5852C45.4055 17.0227 45.2266 16.3125 45.2322 15.4545V2.77273ZM59.5163 19.2557C58.1697 19.2557 57.0107 18.983 56.0391 18.4375C55.0732 17.8864 54.3288 17.108 53.8061 16.1023C53.2834 15.0909 53.022 13.8949 53.022 12.5142C53.022 11.1676 53.2834 9.9858 53.8061 8.96875C54.3288 7.9517 55.0646 7.15909 56.0135 6.59091C56.968 6.02273 58.0874 5.73864 59.3714 5.73864C60.2351 5.73864 61.0391 5.87784 61.7834 6.15625C62.5334 6.42898 63.1868 6.84091 63.7436 7.39205C64.3061 7.94318 64.7436 8.63636 65.0561 9.47159C65.3686 10.3011 65.5249 11.2727 65.5249 12.3864V13.3835H54.4709V11.1335H62.1072C62.1072 10.6108 61.9936 10.1477 61.7663 9.74432C61.5391 9.34091 61.2237 9.02557 60.8203 8.7983C60.4226 8.56534 59.9595 8.44886 59.4311 8.44886C58.88 8.44886 58.3913 8.5767 57.9652 8.83239C57.5447 9.08239 57.2152 9.42045 56.9766 9.84659C56.7379 10.267 56.6158 10.7358 56.6101 11.2528V13.392C56.6101 14.0398 56.7294 14.5994 56.968 15.071C57.2124 15.5426 57.5561 15.9062 57.9993 16.1619C58.4425 16.4176 58.968 16.5455 59.576 16.5455C59.9794 16.5455 60.3487 16.4886 60.6839 16.375C61.0192 16.2614 61.3061 16.0909 61.5447 15.8636C61.7834 15.6364 61.9652 15.358 62.0902 15.0284L65.4482 15.25C65.2777 16.0568 64.9283 16.7614 64.3999 17.3636C63.8771 17.9602 63.201 18.4261 62.3714 18.7614C61.5476 19.0909 60.5959 19.2557 59.5163 19.2557ZM71.5249 11.4318V19H67.8942V5.90909H71.3544V8.21875H71.5078C71.7976 7.45739 72.2834 6.85511 72.9652 6.41193C73.647 5.96307 74.4737 5.73864 75.4453 5.73864C76.3544 5.73864 77.147 5.9375 77.8232 6.33523C78.4993 6.73295 79.0249 7.30114 79.3999 8.03977C79.7749 8.77273 79.9624 9.64773 79.9624 10.6648V19H76.3317V11.3125C76.3374 10.5114 76.1328 9.88636 75.718 9.4375C75.3033 8.98295 74.7322 8.75568 74.005 8.75568C73.5163 8.75568 73.0845 8.8608 72.7095 9.07102C72.3402 9.28125 72.0504 9.58807 71.8402 9.99148C71.6357 10.3892 71.5305 10.8693 71.5249 11.4318ZM89.7869 5.90909V8.63636H81.9034V5.90909H89.7869ZM83.6932 2.77273H87.3239V14.9773C87.3239 15.3125 87.375 15.5739 87.4773 15.7614C87.5795 15.9432 87.7216 16.071 87.9034 16.1449C88.0909 16.2187 88.3068 16.2557 88.5511 16.2557C88.7216 16.2557 88.892 16.2415 89.0625 16.2131C89.233 16.179 89.3636 16.1534 89.4545 16.1364L90.0256 18.8381C89.8438 18.8949 89.5881 18.9602 89.2585 19.0341C88.929 19.1136 88.5284 19.1619 88.0568 19.179C87.1818 19.2131 86.4148 19.0966 85.7557 18.8295C85.1023 18.5625 84.5938 18.1477 84.2301 17.5852C83.8665 17.0227 83.6875 16.3125 83.6932 15.4545V2.77273Z" fill="#090A0A" />
    <path d="M96.1491 19L91.1548 1.54545H95.1861L98.0753 13.6733H98.2202L101.408 1.54545H104.859L108.038 13.6989H108.192L111.081 1.54545H115.112L110.118 19H106.521L103.197 7.58807H103.061L99.7457 19H96.1491ZM117.019 19V5.90909H120.65V19H117.019ZM118.843 4.22159C118.303 4.22159 117.84 4.04261 117.454 3.68466C117.073 3.32102 116.883 2.88636 116.883 2.38068C116.883 1.88068 117.073 1.4517 117.454 1.09375C117.84 0.730113 118.303 0.548295 118.843 0.548295C119.383 0.548295 119.843 0.730113 120.224 1.09375C120.61 1.4517 120.803 1.88068 120.803 2.38068C120.803 2.88636 120.61 3.32102 120.224 3.68466C119.843 4.04261 119.383 4.22159 118.843 4.22159ZM123.49 19V16.8352L129.899 8.90057V8.80682H123.712V5.90909H134.271V8.26989L128.254 16.0085V16.1023H134.493V19H123.49Z" fill="#6B4EFF" />
</svg>