<?xml version="1.0" standalone="no"?>
<!DOCTYPE svg PUBLIC "-//W3C//DTD SVG 20010904//EN"
 "http://www.w3.org/TR/2001/REC-SVG-20010904/DTD/svg10.dtd">
<svg version="1.0" xmlns="http://www.w3.org/2000/svg"
 width="1920.000000pt" height="1080.000000pt" viewBox="0 0 1920.000000 1080.000000"
 preserveAspectRatio="xMidYMid meet">
<metadata>
Created by potrace 1.16, written by Peter Selinger 2001-2019
</metadata>
<g transform="translate(0.000000,1080.000000) scale(0.100000,-0.100000)"
fill="#000000" stroke="none">
<path d="M9358 6808 c28 -28 6 -40 -126 -74 -53 -14 -106 -29 -117 -34 -11 -6
-29 -12 -40 -13 -11 -2 -40 -14 -65 -25 -32 -15 -37 -20 -16 -15 45 9 25 -11
-57 -57 -128 -72 -119 -66 -364 -237 -46 -32 -137 -96 -205 -143 -67 -47 -140
-98 -164 -115 -23 -16 -70 -50 -105 -74 -530 -368 -545 -379 -627 -467 -65
-69 -91 -111 -116 -186 -19 -57 -22 -90 -11 -108 11 -18 12 -21 19 -110 8 -89
23 -165 43 -218 22 -59 25 -48 6 23 -19 74 -13 227 12 300 26 78 98 186 163
246 127 116 137 120 194 81 32 -22 48 -27 65 -21 25 9 43 38 43 68 0 30 -18
26 -55 -13 l-32 -34 -61 40 c-59 38 -60 40 -50 69 21 60 68 68 120 20 17 -16
25 -18 42 -9 12 6 23 14 26 18 3 4 30 24 60 44 30 20 80 55 110 76 30 22 84
60 120 84 36 25 88 61 115 81 28 20 66 47 85 60 19 13 72 50 117 82 45 32 101
71 125 88 24 16 61 43 83 60 22 16 47 35 57 40 9 6 47 31 86 57 83 57 184 108
272 138 84 28 209 60 237 60 13 0 73 34 134 75 65 44 121 75 136 75 15 0 69
-30 133 -75 77 -53 123 -78 157 -85 198 -39 350 -112 580 -275 54 -38 114 -81
134 -95 87 -61 459 -321 542 -380 51 -36 120 -85 154 -109 l63 -44 34 27 c46
35 72 33 96 -6 11 -18 20 -36 20 -40 0 -4 -27 -26 -60 -48 l-60 -41 -35 36
c-41 41 -55 44 -55 12 0 -21 42 -77 58 -77 4 0 27 14 52 30 25 16 48 30 53 30
16 0 125 -96 180 -159 107 -121 150 -262 129 -423 -12 -97 -58 -206 -110 -260
-14 -16 -23 -28 -19 -28 3 0 -5 -11 -18 -25 -14 -13 -25 -32 -25 -42 0 -11 6
-6 16 15 9 17 23 32 30 32 8 0 14 5 14 11 0 5 5 7 10 4 6 -4 9 -3 8 2 -3 8 8
23 45 64 9 10 14 19 11 19 -3 0 4 9 17 20 13 10 20 19 15 20 -6 0 -3 6 6 13
19 14 72 139 89 210 17 69 6 237 -20 317 -33 98 -102 208 -178 281 -65 63
-372 289 -392 289 -5 0 -11 4 -13 8 -3 9 -203 151 -261 186 -18 11 -57 38 -87
61 -30 22 -75 54 -100 70 -25 17 -49 33 -55 38 -13 9 -166 117 -225 158 -25
17 -74 51 -110 77 -135 95 -285 161 -490 213 -47 12 -87 25 -90 30 -3 5 -30
-9 -60 -30 l-55 -39 -32 35 c-18 19 -37 32 -43 28 -5 -3 -10 -1 -10 5 0 7 -23
9 -71 6 -71 -5 -99 -17 -99 -42 0 -22 -17 -17 -73 21 -51 34 -83 47 -59 23z"/>
<path d="M9500 6605 c-58 -41 -125 -88 -150 -105 -25 -16 -139 -97 -255 -178
-115 -82 -284 -200 -375 -263 -91 -64 -196 -138 -235 -166 -38 -27 -148 -103
-243 -169 -96 -65 -188 -131 -205 -145 l-31 -26 22 -12 c21 -11 45 4 285 172
144 101 431 302 637 447 206 145 387 273 401 284 93 73 240 166 263 166 29 0
39 -7 426 -280 129 -91 264 -186 300 -211 36 -25 240 -168 453 -318 336 -235
390 -270 408 -261 11 6 17 16 13 21 -3 6 -70 53 -148 105 -77 52 -191 129
-252 172 -61 42 -166 115 -233 162 -68 47 -171 121 -230 166 -106 80 -145 105
-191 124 -35 14 -61 31 -87 58 -12 12 -26 22 -30 22 -4 0 -19 10 -33 21 -14
11 -19 17 -11 13 9 -4 12 -3 8 4 -4 5 -15 8 -25 5 -19 -4 -55 22 -65 47 -3 9
-6 10 -6 2 -1 -16 -41 7 -41 25 0 18 -232 194 -254 192 -6 -1 -58 -34 -116
-74z"/>
<path d="M9289 6191 c9 -6 10 -10 2 -12 -6 -2 -13 -14 -15 -26 -4 -17 6 -32
37 -59 23 -19 54 -43 68 -51 44 -26 62 -67 53 -121 -4 -26 -6 -52 -5 -59 2
-14 -33 -35 -43 -25 -4 3 -4 0 -1 -9 3 -8 -1 -23 -10 -34 -14 -18 -14 -18 -9
-1 6 16 4 17 -13 8 -11 -6 -24 -8 -28 -4 -5 4 -5 2 -1 -5 3 -6 2 -14 -4 -18
-5 -3 -10 -2 -10 2 0 5 -9 9 -20 10 -14 1 -22 -6 -26 -24 -5 -18 -9 -21 -15
-12 -6 11 -9 10 -14 -3 -4 -10 -15 -20 -26 -23 -10 -4 -19 -12 -19 -19 0 -6
-9 -12 -20 -13 -11 -1 -20 4 -20 11 0 9 -20 13 -66 15 -52 2 -64 -1 -58 -11 6
-10 5 -11 -8 -1 -8 7 -19 9 -23 5 -5 -4 -5 -1 -1 6 5 8 -3 14 -24 19 -22 4
-28 8 -18 14 10 6 8 9 -7 9 -24 1 -58 24 -48 33 6 7 -19 11 -44 8 -6 -1 -14 7
-18 18 -6 20 -55 26 -52 6 1 -5 -4 -9 -11 -7 -10 2 -10 -2 -1 -19 8 -15 8 -19
0 -15 -6 4 -11 2 -11 -4 0 -14 31 -44 103 -97 61 -46 68 -64 55 -142 -8 -47
-32 -81 -55 -81 -8 0 -12 -4 -9 -8 3 -5 -8 -6 -25 -4 -18 3 -29 0 -29 -7 0 -7
-4 -9 -10 -6 -5 3 -10 2 -10 -3 0 -6 -7 -13 -16 -16 -14 -6 -15 -4 -4 11 7 10
-2 2 -20 -17 -18 -19 -29 -28 -24 -20 7 13 5 13 -9 2 -9 -8 -15 -19 -14 -25 3
-17 -45 -38 -60 -25 -7 6 -21 8 -32 5 -10 -2 -25 0 -34 4 -10 6 -18 5 -22 -1
-4 -6 -11 -7 -17 -4 -8 5 -9 1 -5 -10 4 -9 3 -14 -2 -11 -5 3 -13 0 -16 -6 -5
-7 -12 -3 -22 10 -8 12 -21 21 -29 21 -8 0 -12 5 -9 10 3 6 1 10 -4 10 -22 0
-26 3 -49 34 -13 17 -31 31 -40 31 -18 0 -42 16 -37 26 2 3 -9 10 -24 16 l-28
10 3 -56 c3 -57 26 -91 60 -91 8 0 13 -5 11 -10 -1 -6 11 -18 28 -28 16 -9 38
-25 49 -34 10 -10 23 -15 28 -12 4 3 8 0 8 -5 0 -6 7 -11 16 -11 8 0 13 -3 10
-8 -3 -5 308 -236 398 -294 10 -7 -24 -48 -40 -48 -3 0 -34 19 -68 43 -479
339 -696 495 -721 516 -42 37 -92 71 -105 71 -14 0 -13 -23 3 -42 6 -9 95 -76
197 -148 102 -73 188 -137 191 -143 8 -11 -16 -37 -53 -56 -15 -8 -25 -18 -23
-22 3 -4 -3 -10 -12 -13 -10 -3 -42 -28 -72 -56 -30 -27 -58 -47 -64 -43 -6 3
-7 1 -3 -5 4 -7 1 -12 -9 -12 -9 0 -14 -4 -11 -9 3 -5 -7 -14 -23 -21 -34 -14
-99 -60 -85 -60 5 0 3 -4 -4 -9 -8 -5 -15 -27 -16 -49 -1 -22 1 -39 5 -36 4 2
13 -4 20 -13 10 -12 10 -14 2 -9 -7 4 -13 2 -13 -3 0 -6 7 -11 16 -11 9 0 26
-10 38 -23 21 -23 28 -27 47 -27 5 0 8 -4 4 -9 -3 -5 3 -12 14 -16 11 -3 36
-21 57 -40 21 -19 43 -35 49 -35 6 0 18 -8 26 -17 9 -10 29 -27 45 -38 16 -11
39 -30 52 -42 13 -13 25 -23 27 -23 6 0 46 -33 88 -72 32 -30 43 -35 31 -15
-5 8 -2 7 9 -2 10 -8 15 -16 13 -19 -6 -5 49 -53 61 -53 4 0 13 -10 20 -22 6
-12 14 -21 18 -19 4 2 13 -5 22 -15 8 -10 11 -12 7 -4 -5 9 -3 12 4 7 7 -4 12
-14 12 -23 0 -9 3 -13 7 -10 3 4 23 -11 43 -33 20 -22 42 -40 49 -40 7 0 10
-4 6 -9 -3 -5 -1 -12 5 -16 6 -4 7 -12 3 -18 -4 -7 0 -6 10 2 14 11 17 11 18
0 1 -8 1 -18 0 -23 -1 -5 5 -4 13 4 14 11 16 9 18 -16 0 -16 0 -36 -1 -44 -6
-60 -6 -102 1 -106 5 -3 5 -11 1 -17 -4 -7 -8 -26 -9 -43 -2 -49 -10 -55 -47
-34 -18 11 -42 28 -54 40 -12 11 -25 20 -28 20 -3 0 -40 25 -80 55 -41 30 -79
55 -85 55 -5 0 -10 4 -10 8 0 5 -12 15 -27 23 -16 7 -46 28 -68 45 -22 17 -58
43 -80 57 -22 15 -58 40 -80 56 -22 16 -69 50 -105 75 -36 25 -77 55 -92 66
-14 11 -29 17 -32 12 -5 -8 128 -112 195 -154 14 -9 33 -23 41 -32 9 -8 31
-25 49 -38 19 -13 80 -57 137 -98 57 -41 111 -79 120 -85 10 -5 50 -37 90 -70
123 -102 246 -195 260 -195 6 0 12 -5 12 -11 0 -6 -6 -8 -12 -5 -7 3 -21 9
-30 12 -10 4 -18 10 -18 15 0 5 -7 9 -15 9 -8 0 -73 41 -143 90 -70 50 -178
127 -240 170 -62 44 -118 84 -125 90 -16 14 -580 415 -692 493 -168 117 -288
258 -344 404 -31 81 -52 208 -45 268 2 17 6 54 9 84 3 30 10 60 16 67 6 7 8
17 5 23 -3 5 -1 12 4 14 7 4 6 5 -1 4 -6 -2 -11 -7 -11 -12 0 -6 -8 -21 -18
-35 -9 -14 -20 -36 -23 -50 -3 -14 -11 -48 -19 -76 -8 -29 -13 -59 -12 -68 1
-9 -1 -16 -6 -16 -10 0 15 -132 30 -160 6 -11 8 -20 5 -20 -3 0 0 -12 8 -27 8
-16 25 -48 37 -73 13 -25 30 -53 38 -62 8 -10 11 -18 6 -18 -5 0 -1 -5 9 -11
13 -8 17 -18 13 -35 -5 -18 -3 -22 9 -18 8 4 15 2 15 -4 0 -5 -11 -13 -25 -16
-24 -6 -36 -26 -15 -26 6 0 9 -3 8 -7 -3 -14 20 -59 36 -72 13 -11 14 -16 4
-29 -9 -10 -9 -13 -1 -9 7 4 20 -7 33 -28 22 -35 116 -121 180 -165 19 -14 40
-29 46 -35 6 -5 51 -37 99 -70 48 -33 115 -81 148 -106 34 -25 240 -173 457
-328 217 -155 403 -292 414 -304 10 -12 21 -20 25 -18 8 5 32 -42 25 -49 -3
-2 -14 6 -25 20 l-19 25 11 -30 c6 -16 10 -32 9 -33 -1 -2 2 -7 6 -10 4 -4 4
-1 0 6 -4 6 -2 12 4 12 12 0 9 -45 -5 -57 -4 -4 -5 -2 -1 4 5 9 2 11 -9 6 -12
-4 -13 -8 -5 -13 8 -5 9 -13 4 -21 -6 -12 -5 -12 9 0 21 17 22 8 1 -13 -14
-15 -14 -16 0 -16 9 0 16 5 16 12 0 6 3 8 6 5 4 -4 2 -13 -4 -20 -7 -8 -8 -17
-4 -22 4 -4 -3 -2 -16 4 -23 12 -23 12 -7 -12 11 -17 13 -27 5 -32 -6 -3 -7
-12 -3 -18 14 -23 12 -39 -5 -33 -13 5 -12 2 2 -9 14 -11 16 -15 5 -15 -8 0
-10 -3 -4 -8 6 -4 10 -14 10 -22 0 -25 209 -122 355 -165 232 -67 596 -73 860
-15 162 36 331 102 343 135 4 8 2 15 -4 15 -6 0 -9 6 -6 14 3 8 1 17 -6 20 -9
3 -9 5 0 5 7 1 10 11 7 28 -3 15 0 30 8 34 8 5 9 9 2 9 -6 0 -10 11 -9 25 2
14 -1 25 -6 25 -6 0 -6 7 -1 18 5 9 7 44 6 78 -1 33 1 65 4 70 4 6 35 27 70
48 34 21 62 42 62 47 0 6 5 7 10 4 6 -3 10 -1 10 4 0 6 -4 11 -10 11 -5 0 -10
5 -10 11 0 6 7 8 16 5 9 -3 12 -2 8 5 -3 6 -16 8 -28 5 -18 -4 -16 -1 9 22 71
63 113 96 165 130 30 21 62 44 72 52 32 28 47 40 53 40 9 0 129 92 133 102 2
4 9 8 16 8 7 0 21 8 32 18 10 9 44 34 75 54 30 20 61 44 68 52 8 9 18 16 24
16 5 0 18 9 28 21 9 11 19 19 21 17 4 -4 71 43 146 102 52 41 148 109 191 135
9 6 18 12 21 15 3 3 35 27 73 53 37 27 67 52 67 58 0 14 -21 1 -127 -78 -51
-37 -118 -86 -149 -108 -31 -22 -82 -58 -113 -81 -61 -44 -213 -153 -386 -276
-60 -43 -159 -114 -220 -158 -198 -146 -256 -181 -344 -211 -66 -23 -67 -23
-50 -2 13 17 12 17 -13 0 -16 -10 -28 -15 -28 -12 0 3 -17 -3 -37 -13 -43 -22
-244 -71 -285 -70 -48 1 -31 13 36 26 35 6 77 17 92 24 16 6 31 12 34 13 3 1
20 6 38 10 18 4 35 12 38 16 3 5 10 7 15 4 5 -4 12 0 15 8 3 9 13 13 25 10 14
-4 19 0 19 13 0 14 2 16 9 6 6 -10 10 -9 14 7 5 22 25 24 40 6 5 -6 6 -2 3 8
-4 13 3 23 25 35 48 27 151 103 215 159 58 50 152 120 424 315 74 53 151 111
170 128 l35 32 -40 -22 c-22 -12 -90 -60 -152 -106 -61 -46 -115 -84 -120 -84
-4 0 -19 -12 -32 -25 -13 -14 -29 -25 -36 -25 -6 0 -22 -9 -35 -20 -13 -11
-29 -20 -37 -20 -8 0 -12 -4 -9 -8 3 -5 -10 -17 -28 -28 -73 -42 -136 -86
-136 -95 0 -5 -6 -9 -14 -9 -8 0 -21 -6 -28 -12 -16 -15 -73 -48 -83 -48 -4 0
-2 7 5 15 10 12 10 15 0 15 -9 0 -9 4 1 17 8 9 9 14 3 10 -7 -4 -14 0 -18 8
-3 8 -2 15 2 15 7 0 6 59 -2 172 -2 32 -1 57 3 56 24 -5 104 59 94 75 -3 6 -1
7 5 3 7 -4 12 -1 12 6 0 9 3 9 10 -2 6 -9 10 -10 10 -3 0 6 -4 15 -10 18 -5 3
-10 12 -9 18 0 8 2 8 6 -1 4 -10 8 -10 21 0 13 11 14 11 7 -1 -6 -10 -4 -12 4
-7 7 5 10 15 7 23 -3 8 -1 11 5 8 5 -4 16 -1 24 5 8 6 19 9 24 6 7 -4 6 4 0
24 -6 16 -15 28 -19 25 -4 -3 -10 2 -13 10 -4 10 -1 12 11 9 14 -4 13 -3 -2 6
-14 10 -20 10 -26 0 -4 -7 -12 -10 -18 -6 -6 3 -14 2 -17 -4 -4 -6 -3 -10 2
-9 19 3 30 -2 30 -15 0 -11 -5 -12 -21 -5 -15 7 -32 6 -56 -5 -25 -11 -29 -16
-15 -16 l20 -1 -20 -8 c-12 -5 -23 -4 -27 3 -6 8 -8 7 -8 -1 0 -7 -9 -13 -20
-13 -10 0 -23 -7 -27 -15 -5 -8 -24 -20 -42 -25 -19 -5 -31 -7 -28 -4 8 8 -16
33 -25 27 -11 -6 -10 5 3 30 10 18 6 17 -22 -8 -19 -16 -38 -36 -42 -43 -5 -7
-12 -10 -17 -7 -4 3 -10 -2 -14 -10 -7 -19 -22 -19 -30 1 -3 8 -2 12 4 9 6 -3
7 1 4 9 -7 18 -34 22 -34 6 0 -5 -5 -10 -11 -10 -5 0 -7 5 -3 11 4 7 -6 5 -22
-4 -26 -13 -52 -22 -189 -61 -22 -7 -50 -11 -62 -10 -13 1 -23 -3 -23 -9 0 -6
-3 -7 -7 -4 -3 4 2 16 13 28 14 15 15 20 4 17 -8 -2 -18 -7 -22 -12 -4 -6 -13
-4 -22 3 -9 8 -16 9 -16 4 0 -11 -118 -10 -240 1 -97 10 -121 14 -200 33 -36
8 -74 17 -85 18 -40 5 -65 17 -58 29 4 6 0 5 -9 -2 -9 -7 -19 -9 -22 -4 -9 15
-45 21 -53 10 -3 -7 -1 -8 5 -4 7 4 12 2 12 -4 0 -6 4 -9 9 -5 5 3 12 1 15 -4
17 -27 -22 -19 -72 15 -265 176 -314 471 -117 714 70 87 260 196 392 225 87
19 116 32 108 46 -14 22 8 28 32 9 22 -17 41 -20 129 -20 l104 0 0 30 c0 17 2
30 4 30 2 0 13 3 23 6 15 5 15 4 3 -5 -13 -9 -13 -11 1 -11 17 0 33 -26 24
-40 -8 -13 17 -27 75 -40 95 -22 202 -69 294 -130 67 -45 87 -55 83 -40 -3 13
-1 18 6 13 6 -4 8 0 4 10 -3 9 1 18 10 21 10 4 14 2 10 -8 -4 -10 -1 -13 9 -9
16 6 74 -15 74 -27 0 -15 79 -62 92 -54 7 4 64 43 126 87 l112 79 -22 19 c-13
11 -33 28 -46 39 -13 11 -36 27 -53 37 -16 10 -29 21 -29 25 0 4 -7 8 -15 8
-8 0 -14 6 -12 13 1 6 -4 11 -12 9 -9 -2 -11 3 -7 14 6 15 4 15 -11 3 -9 -8
-14 -9 -11 -4 3 6 0 16 -8 23 -11 10 -14 10 -15 0 0 -7 -5 -4 -10 7 -6 11 -32
32 -59 47 -28 16 -50 33 -50 39 0 5 -4 7 -10 4 -5 -3 -10 -2 -10 2 0 5 -13 17
-30 26 -36 22 -38 32 -6 32 13 0 22 -3 20 -6 -2 -4 3 -10 12 -13 8 -3 12 -10
9 -16 -3 -5 1 -10 9 -10 9 0 16 -5 16 -11 0 -5 5 -7 10 -4 6 4 9 1 8 -7 -2 -7
5 -12 15 -12 9 1 17 -5 17 -13 0 -8 5 -11 10 -8 6 3 10 1 10 -5 0 -6 4 -9 9
-6 5 3 21 -6 35 -19 15 -14 31 -25 35 -25 5 0 14 -7 21 -15 6 -8 16 -13 20
-12 5 1 15 -6 22 -15 7 -9 19 -18 27 -20 8 -2 22 -10 32 -18 46 -39 47 -40 53
-27 4 7 5 3 3 -8 -3 -15 2 -20 21 -22 13 0 28 -6 31 -11 4 -7 18 -3 39 10 l32
20 -62 49 c-92 73 -93 74 -108 77 -8 2 -20 12 -28 23 -7 10 -18 19 -23 19 -10
0 -134 91 -176 130 -13 11 -25 19 -27 18 -3 -2 -15 5 -26 15 -11 9 -22 17 -25
17 -5 0 -38 26 -63 50 -14 13 -15 13 -10 -8 3 -12 2 -20 -2 -17 -5 3 -13 -3
-19 -12 -10 -17 -10 -17 -11 0 0 9 4 17 9 17 5 0 3 14 -5 30 -9 17 -20 30 -25
30 -6 0 -8 4 -5 9 3 5 -3 11 -14 14 -11 3 -23 1 -26 -4 -10 -17 -23 -9 -19 11
2 11 1 19 -3 19 -25 -4 -42 2 -36 13 5 8 2 9 -11 4 -16 -6 -16 -4 -4 10 13 16
12 16 -8 6 -20 -11 -21 -10 -17 16 l4 27 -15 -25 c-14 -24 -20 -16 -15 19 1 9
-4 12 -16 7 -10 -4 -15 -4 -12 0 8 8 -29 49 -45 49 -7 0 -11 8 -11 18 1 9 -5
17 -13 17 -8 0 -11 5 -7 12 4 7 3 8 -5 4 -9 -6 -9 -12 1 -24 11 -14 9 -14 -8
1 -11 9 -24 14 -29 10 -4 -5 -3 2 3 14 9 16 9 22 -3 26 -10 4 -12 1 -9 -11 5
-15 4 -15 -8 -1 -7 9 -23 21 -35 28 -13 7 -20 17 -17 26 4 8 1 29 -5 45 -8 25
-7 32 4 37 8 3 15 9 15 14 0 4 -7 6 -15 3 -8 -4 -15 -1 -15 6 0 21 -23 5 -27
-19 -2 -15 1 -20 9 -15 7 4 8 3 4 -5 -10 -15 -29 -3 -22 15 3 7 1 16 -5 19 -5
4 -14 -7 -20 -23 -9 -26 -39 -41 -39 -20 0 14 -30 42 -49 46 -46 10 -60 9 -65
-4 -3 -7 -12 -11 -21 -8 -8 3 -13 9 -10 14 6 10 -44 32 -57 24 -6 -4 -9 -3 -6
2 7 11 -17 35 -26 27 -3 -4 -6 -1 -6 6 0 8 -6 11 -16 7 -8 -3 -12 -2 -9 4 3 6
-1 13 -9 16 -9 3 -13 11 -10 16 4 6 -3 5 -15 -1 -17 -10 -21 -9 -21 5 0 10 -5
14 -15 11 -8 -4 -17 -2 -20 3 -4 6 -14 10 -23 10 -13 0 -14 -2 -3 -9z m365
-423 c194 -137 270 -188 282 -188 7 0 10 14 8 40 -2 22 1 40 6 40 13 0 80 -43
80 -51 0 -3 -16 -13 -36 -23 -36 -16 -36 -17 -18 -37 10 -11 63 -52 118 -91
158 -112 146 -92 146 -232 0 -112 -2 -122 -21 -134 -12 -7 -23 -11 -26 -9 -2
3 -7 43 -10 89 -2 45 -5 89 -5 96 -1 6 -8 12 -16 12 -9 0 -34 11 -57 25 -23
13 -46 21 -50 17 -5 -4 -5 -2 -1 5 4 8 -8 22 -31 37 -21 13 -67 45 -103 71
-99 70 -174 119 -183 120 -4 0 -11 5 -15 10 -4 6 -20 19 -37 29 -16 11 -34 23
-40 28 -5 4 -25 19 -42 34 -18 14 -33 23 -33 20 0 -6 -7 0 -68 51 -15 13 -30
23 -34 23 -16 0 -7 51 12 70 34 34 65 25 174 -52z m-144 -156 c210 -147 213
-150 205 -193 -10 -55 -20 -66 -42 -47 -10 9 -34 18 -53 20 -21 2 -44 13 -57
27 -20 21 -25 22 -40 10 -11 -10 -14 -10 -9 -1 4 7 1 15 -8 18 -9 3 -13 10
-10 15 3 5 -2 9 -11 9 -9 0 -13 5 -10 11 4 6 0 9 -11 7 -11 -2 -18 2 -16 10 1
6 -6 12 -17 12 -10 0 -24 6 -31 14 -6 8 -19 12 -27 9 -12 -5 -14 -3 -8 7 6 10
4 12 -7 7 -12 -4 -15 0 -11 16 4 18 3 19 -6 7 -6 -8 -11 -10 -11 -4 0 6 -10
11 -22 10 -19 -1 -24 6 -29 38 -3 21 -4 47 -1 58 5 22 50 49 72 44 8 -1 80
-49 160 -104z m-381 -199 c140 -97 201 -143 201 -151 0 -8 -100 -42 -121 -42
-12 0 -161 99 -171 114 -4 6 -8 8 -8 3 0 -13 -59 22 -70 42 -25 48 3 101 53
101 11 0 63 -30 116 -67z m-222 -100 c28 -21 80 -59 117 -85 36 -26 66 -51 66
-55 0 -5 -23 -23 -50 -41 -34 -22 -50 -39 -51 -55 0 -12 -3 -16 -6 -9 -2 6
-12 12 -22 12 -9 0 -24 -6 -31 -12 -13 -11 -13 -11 -2 2 6 7 12 21 12 30 -1
12 -4 11 -17 -5 -13 -16 -15 -17 -10 -2 4 9 5 17 3 17 -3 0 -12 3 -22 7 -13 5
-15 3 -9 -8 5 -8 5 -11 -1 -6 -5 5 -9 12 -9 15 0 10 -28 45 -47 61 -26 19 -22
6 5 -19 15 -15 17 -21 7 -20 -29 4 -41 0 -34 -12 5 -10 3 -10 -7 0 -10 10 -11
15 -2 20 7 5 9 13 4 21 -5 7 -14 10 -20 7 -6 -4 -11 -2 -11 3 0 6 5 11 10 11
6 0 10 5 10 11 0 5 -4 7 -10 4 -5 -3 -10 -5 -10 -3 0 2 -3 26 -6 54 -5 44 -3
55 15 73 31 31 69 26 128 -16z m-671 -388 c3 -11 8 -40 9 -65 2 -25 4 -45 5
-45 1 0 3 -18 5 -40 1 -22 5 -48 10 -57 4 -12 3 -18 -5 -18 -6 0 -8 5 -5 10 6
10 -7 14 -32 11 -17 -2 -90 45 -102 66 -6 10 -11 14 -11 10 0 -17 -29 21 -36
47 -5 22 -3 28 15 33 11 3 21 12 21 20 0 8 5 11 10 8 6 -3 10 2 11 12 0 10 3
13 6 6 2 -7 12 -13 21 -13 15 0 15 2 2 10 -13 8 -12 10 3 10 9 0 17 4 17 10 0
19 49 6 56 -15z m506 -408 c1 -12 2 -31 3 -42 1 -11 4 -26 9 -33 4 -6 5 -16 2
-21 -4 -5 0 -12 6 -14 8 -3 4 -6 -7 -7 -15 -2 -14 -4 7 -9 25 -6 26 -7 11 -26
l-16 -20 7 20 c6 16 5 17 -5 8 -10 -10 -17 -9 -33 5 -11 10 -16 11 -11 3 5
-10 -2 -8 -23 5 -17 10 -29 20 -27 22 2 3 -10 13 -28 22 -24 13 -32 25 -34 48
-1 29 14 41 59 46 3 1 9 3 11 6 3 3 19 6 36 7 25 2 31 -2 33 -20z"/>
<path d="M9980 6094 c0 -12 -3 -35 -6 -52 -6 -29 -2 -33 117 -117 68 -49 128
-93 132 -99 4 -6 6 -29 4 -51 -4 -38 -1 -42 37 -67 23 -14 82 -54 131 -89 187
-130 276 -189 284 -189 5 0 8 11 7 25 0 14 -3 25 -6 25 -3 0 -5 20 -5 45 0 25
3 45 6 45 3 0 4 14 1 30 -2 17 -8 30 -12 30 -11 0 -23 -37 -15 -49 3 -5 0 -13
-7 -18 -18 -11 -39 -13 -33 -3 3 5 -5 16 -17 24 -18 13 -19 16 -5 16 9 0 17 4
17 10 0 5 -7 7 -15 4 -11 -4 -13 -2 -9 9 6 16 -30 42 -45 33 -5 -3 -20 3 -32
15 -13 11 -17 17 -9 13 13 -7 13 -5 1 9 -7 9 -17 15 -21 12 -4 -2 -13 7 -20
20 -7 14 -22 27 -33 31 -14 4 -16 8 -7 14 8 5 3 10 -14 14 -14 3 -26 11 -26
16 0 6 -7 10 -16 10 -8 0 -13 4 -10 8 3 5 -13 24 -36 42 -22 19 -47 40 -54 48
-8 7 -14 11 -14 7 0 -6 -13 4 -47 35 -9 8 -20 15 -25 15 -5 0 -13 6 -17 14 -5
8 -14 10 -21 6 -8 -5 -11 -4 -6 3 4 6 -8 18 -29 28 -19 9 -35 21 -35 26 0 5
-4 7 -8 4 -5 -3 -15 4 -22 15 -8 10 -20 19 -27 19 -6 0 -17 8 -22 18 -9 15
-10 15 -11 -4z"/>
<path d="M11229 5479 c-51 -39 -99 -74 -242 -180 -34 -25 -87 -62 -117 -83
-30 -21 -67 -48 -82 -62 -15 -13 -32 -24 -36 -24 -5 0 -17 -9 -27 -20 -10 -11
-24 -20 -32 -20 -7 0 -13 -3 -13 -7 0 -5 -18 -19 -40 -32 -21 -14 -37 -27 -35
-31 2 -4 -1 -7 -8 -7 -7 0 -51 -27 -99 -61 -48 -34 -91 -62 -96 -62 -5 0 -17
10 -25 23 -13 17 -18 19 -25 9 -17 -25 3 -92 28 -92 4 0 38 21 76 46 38 25 70
41 72 35 2 -6 10 -11 17 -11 7 0 16 -7 19 -16 3 -8 10 -13 15 -10 5 4 17 -2
27 -11 31 -32 67 -41 85 -24 27 27 36 66 42 190 2 33 9 49 30 67 33 28 50 30
71 9 8 -8 19 -15 25 -15 6 0 11 -4 11 -10 0 -5 6 -10 13 -10 8 0 22 -9 32 -20
19 -21 41 -28 29 -8 -5 7 -3 8 5 4 7 -5 10 -10 7 -13 -6 -6 48 -63 61 -63 6 0
23 -12 38 -26 15 -14 34 -23 41 -20 8 3 13 2 13 -2 -4 -22 3 -30 21 -25 15 4
19 2 14 -10 -3 -8 0 -18 7 -23 8 -5 10 -3 4 6 -5 9 -4 11 3 6 7 -4 12 -14 12
-23 0 -9 8 -22 18 -30 9 -7 13 -12 7 -11 -18 4 -55 -13 -50 -23 9 -14 27 -11
19 4 -6 10 -4 10 7 0 16 -16 43 -17 34 -2 -4 6 0 9 11 7 18 -3 20 1 23 43 0
11 5 18 9 15 5 -3 9 2 9 10 0 9 -11 21 -24 27 -12 5 -23 14 -23 19 0 4 -9 8
-21 8 -11 0 -17 5 -14 10 3 6 1 10 -4 10 -10 0 -42 24 -80 60 -9 9 -25 22 -35
30 -18 13 -19 13 -11 0 4 -8 -2 -5 -14 8 -12 12 -28 22 -36 22 -8 0 -20 8 -27
18 -7 9 -31 30 -53 46 -22 16 -42 31 -44 33 -3 2 5 14 17 26 12 13 19 27 15
32 -5 4 -2 5 4 1 8 -4 82 42 190 120 180 128 203 147 203 171 0 21 -15 15 -71
-28z"/>
<path d="M9556 5183 c-4 -4 -22 -6 -42 -5 -23 2 -36 -2 -40 -13 -5 -12 -9 -13
-20 -4 -11 9 -14 8 -14 -1 0 -7 -8 -10 -20 -7 -11 3 -20 1 -20 -5 0 -6 -9 -8
-20 -5 -11 3 -20 1 -20 -5 0 -5 -4 -6 -10 -3 -5 3 -10 2 -10 -3 0 -6 -13 -15
-30 -21 -16 -5 -30 -15 -30 -20 0 -6 -6 -11 -12 -11 -17 -1 -62 -39 -55 -46 3
-3 16 1 29 9 28 19 142 54 206 64 77 13 291 7 352 -10 30 -8 62 -16 70 -18 8
-2 53 -23 101 -47 162 -79 256 -201 270 -346 6 -69 10 -68 14 4 3 77 -53 206
-119 274 -83 85 -192 156 -240 156 -16 0 -26 5 -26 15 0 9 -10 15 -26 15 -16
0 -23 -4 -18 -12 4 -7 3 -8 -5 -4 -6 4 -9 11 -6 16 3 5 1 11 -5 15 -5 3 -10 1
-10 -5 0 -6 -10 -4 -24 5 -25 17 -207 31 -220 18z"/>
<path d="M9159 4903 c-1 -14 2 -129 5 -145 3 -22 29 -45 48 -42 24 3 41 -21
42 -60 2 -35 22 -70 36 -61 5 3 11 1 15 -4 3 -6 12 -8 21 -4 8 3 21 -3 29 -13
11 -15 14 -16 15 -4 0 12 2 12 9 2 4 -8 12 -13 17 -13 5 1 9 -4 9 -10 0 -18
37 -37 42 -21 3 6 9 12 14 12 4 0 5 -7 2 -17 -4 -10 -2 -14 4 -10 5 4 15 -5
21 -18 7 -14 19 -25 27 -25 10 0 13 -5 9 -12 -5 -8 0 -9 14 -6 12 4 20 3 17
-2 -3 -4 2 -10 10 -14 8 -3 15 -12 15 -21 0 -8 5 -15 11 -15 5 0 7 6 4 13 -4
6 0 4 8 -5 13 -16 15 -16 32 0 17 16 17 16 11 -2 -5 -14 -2 -17 9 -12 8 3 15
2 15 -3 0 -17 49 -21 88 -7 22 8 43 12 47 8 14 -14 25 27 25 96 0 39 -1 72 -3
72 -2 0 -25 -11 -53 -24 -27 -13 -54 -21 -60 -17 -32 19 -215 154 -219 162 -3
4 44 33 105 64 61 30 119 64 131 76 11 11 25 17 32 12 9 -5 9 -4 0 8 -6 8 -12
18 -12 23 -1 5 -16 10 -35 11 -19 0 -34 -1 -34 -4 0 -4 0 -13 -1 -21 -1 -13
-2 -13 -11 0 -8 12 -21 4 -72 -45 -35 -33 -77 -73 -94 -88 l-30 -27 -35 26
c-18 14 -41 29 -49 34 -13 7 -11 12 8 33 l22 23 -42 30 c-39 27 -47 29 -84 21
-38 -9 -46 -7 -88 22 -25 18 -46 28 -47 24z"/>
<path d="M9935 4776 c-38 -17 -107 -49 -153 -70 l-82 -39 60 -43 60 -44 95 45
95 45 0 70 c0 39 -1 70 -2 69 -2 0 -34 -15 -73 -33z"/>
</g>
</svg>
